<svg width="149" height="55" viewBox="0 0 149 55" fill="none" xmlns="http://www.w3.org/2000/svg">
<g clip-path="url(#clip0_133_11606)">
<path d="M131.765 43.455C136.461 43.455 140.262 42.0704 143.031 39.625C145.9 36.9554 147.718 33.3589 148.159 29.4799L148.788 25.2189C148.929 24.2822 149.002 23.3365 149.005 22.3893C149.116 19.7113 148.268 17.0808 146.611 14.9644C145.5 13.6627 144.071 12.6664 142.46 12.0715C140.509 11.3663 138.444 11.0261 136.369 11.0679C131.672 11.0679 127.889 12.4502 125.135 14.8979C122.282 17.5739 120.476 21.1661 120.038 25.0375L119.411 29.2985C119.268 30.2449 119.194 31.2004 119.19 32.1574C119.077 34.8222 119.914 37.4412 121.552 39.5553C122.655 40.8595 124.079 41.8574 125.686 42.4514C127.632 43.1562 129.693 43.4965 131.765 43.455ZM132.349 38.371C131.123 38.4032 129.903 38.1876 128.764 37.7373C127.892 37.3783 127.141 36.7784 126.602 36.0088C125.811 34.7415 125.427 33.2659 125.5 31.7772C125.505 31.0081 125.565 30.2403 125.682 29.4799L126.31 25.2189C126.73 22.3846 127.694 20.1262 129.245 18.5712C130.115 17.7477 131.145 17.1085 132.271 16.6924C133.398 16.2764 134.598 16.0922 135.799 16.1511C137.023 16.1197 138.241 16.3353 139.379 16.7848C140.258 17.145 141.016 17.7459 141.564 18.5173C142.373 19.7914 142.767 21.2815 142.693 22.7854C142.689 23.5425 142.63 24.2984 142.516 25.047L141.887 29.3064C141.646 31.7811 140.606 34.1122 138.921 35.9518C138.047 36.7754 137.014 37.4145 135.885 37.8303C134.755 38.2462 133.552 38.4301 132.349 38.371Z" fill="white"/>
<path d="M79.786 11.0686C74.9968 11.0686 71.2747 12.4525 68.6031 14.9232C65.9315 17.394 64.3151 20.9436 63.6869 25.2117L63.1074 29.136C62.9497 30.1728 62.868 31.2197 62.8631 32.2682C62.7462 34.8637 63.5173 37.4221 65.0511 39.5275C66.108 40.8437 67.5034 41.8522 69.09 42.4466C71.0543 43.1595 73.1356 43.5012 75.2266 43.4542C79.7423 43.2979 84.239 42.7947 88.6764 41.9491L92.9349 12.645C88.6067 11.7392 84.207 11.2117 79.786 11.0686ZM79.2432 15.9855C81.523 16.0034 83.7993 16.1685 86.0575 16.4798L82.9381 37.9471C80.5502 38.294 78.1425 38.4904 75.7295 38.5349C74.4821 38.5766 73.2402 38.3527 72.0873 37.8782C71.2335 37.5106 70.517 36.8871 70.0383 36.0951C69.3905 34.8806 69.0834 33.5157 69.149 32.1431C69.1573 31.194 69.2347 30.2467 69.3805 29.3087L69.9608 25.3844C70.3927 22.4534 71.2236 20.1023 72.6747 18.4927C74.1259 16.883 76.2148 15.991 79.2432 15.9855Z" fill="white"/>
<path d="M44.2052 43.4551C46.6722 43.5014 49.1243 43.0645 51.421 42.1694L51.3316 42.8974C50.8072 46.3924 49.7775 50.0727 41.7475 50.0727C38.379 50.1391 35.0197 49.6998 31.7835 48.7696L31.3517 51.463C31.2413 51.8863 31.2776 52.3341 31.4546 52.7345C31.6317 53.1349 31.9392 53.4646 32.3278 53.6707C35.2957 54.5773 38.3862 55.0261 41.4913 55.0015C46.9782 55.0015 50.7417 53.9464 53.4588 51.2507C56.1759 48.555 57.3158 44.3874 57.7381 41.5159L62.0699 11.6992H57.8714C57.2949 11.7153 56.7422 11.9307 56.3088 12.3082C55.8754 12.6857 55.5884 13.2016 55.4975 13.7668L52.7636 32.25C52.5883 33.8686 51.8792 35.3843 50.7465 36.5618C49.5492 37.7175 47.7054 38.5358 44.7504 38.5422C43.5133 38.5842 42.2817 38.3601 41.1401 37.8854C40.2864 37.518 39.5701 36.8945 39.0919 36.1023C38.4431 34.8879 38.1359 33.5224 38.2027 32.1495C38.2112 31.2004 38.2886 30.2532 38.4342 29.3152L40.9932 11.7008H36.7683C36.1917 11.7167 35.6389 11.9321 35.2053 12.3096C34.7717 12.6871 34.4846 13.2031 34.3936 13.7683L32.1586 29.1361C31.9909 30.1722 31.8986 31.219 31.8825 32.2683C31.7655 34.8641 32.5369 37.4228 34.0712 39.5284C35.1281 40.8445 36.5235 41.853 38.1101 42.4475C40.0599 43.1607 42.1277 43.5026 44.2052 43.4551Z" fill="white"/>
<path d="M28.1965 -0.000113461C27.6199 0.0155931 27.067 0.230702 26.6332 0.608071C26.1995 0.985441 25.9122 1.50136 25.821 2.06662L24.4314 11.6224C22.1219 11.2988 19.7949 11.1136 17.463 11.0678C12.6738 11.0678 8.41213 12.4517 5.74052 14.924C3.06892 17.3963 1.45255 20.9444 0.824359 25.211L0.243266 29.1353C0.0874098 30.1722 0.00738962 31.219 0.00381306 32.2675C-0.113343 34.8632 0.657745 37.4219 2.1917 39.5275C3.24844 40.8436 4.64356 41.8521 6.22983 42.4466C8.3796 43.157 10.6359 43.4978 12.9013 43.4543C17.7137 43.4543 21.2465 42.0838 23.6603 39.9688C25.915 37.9558 27.3723 35.2108 27.7703 32.227L32.4526 -0.00170898L28.1965 -0.000113461ZM21.4349 32.2485C21.253 33.8688 20.5376 35.3844 19.3995 36.5602C18.2022 37.7159 16.3583 38.5342 13.4033 38.5405C11.982 38.5763 10.5661 38.3537 9.2255 37.8838C8.3717 37.5166 7.65539 36.893 7.17731 36.1007C6.52923 34.8863 6.22236 33.5212 6.2889 32.1486C6.29685 31.1996 6.37395 30.2523 6.51959 29.3143L7.09829 25.39C7.53092 22.459 8.36185 20.1079 9.8122 18.4982C11.2625 16.8886 13.8878 15.9919 16.9162 15.9863C19.1942 16.0047 21.4686 16.1698 23.725 16.4806L21.4349 32.2485Z" fill="white"/>
<path d="M120.396 12.0407L119.91 15.3384C119.863 15.6837 119.689 15.9994 119.421 16.2246C119.154 16.4497 118.811 16.568 118.46 16.5567C115.738 16.4632 113.782 16.1527 110.354 16.1527C109.271 16.1033 108.189 16.2715 107.174 16.6472C106.158 17.0229 105.229 17.5983 104.442 18.3391C102.944 19.8077 101.91 22.0495 101.45 25.1643L100.811 29.537C100.686 30.3498 100.621 31.1705 100.616 31.9926C100.531 33.4904 100.919 34.977 101.726 36.2457C102.235 36.9552 102.938 37.505 103.752 37.83C104.753 38.2151 105.82 38.4 106.892 38.3742C109.845 38.3742 113.856 38.0875 116.589 37.8197L116.055 41.4208C116.006 41.7542 115.853 42.0639 115.616 42.3057C115.38 42.5474 115.073 42.709 114.738 42.7675C111.96 43.2171 109.151 43.4476 106.336 43.4567C104.387 43.4935 102.449 43.1545 100.629 42.4585C99.0807 41.8526 97.7144 40.8632 96.6604 39.5846C95.0416 37.458 94.2151 34.8404 94.3217 32.1772C94.3248 31.2346 94.3966 30.2934 94.5364 29.3611L95.1821 24.9884C95.6256 21.1374 97.4088 17.5605 100.224 14.8742C103.179 12.3023 107.009 10.9429 110.937 11.0719C114.111 11.1433 117.274 11.4672 120.396 12.0407Z" fill="white"/>
</g>
<defs>
<clipPath id="clip0_133_11606">
<rect width="149" height="55" fill="white"/>
</clipPath>
</defs>
</svg>
