<svg width="26" height="26" viewBox="0 0 26 26" fill="none" xmlns="http://www.w3.org/2000/svg">
<g clip-path="url(#clip0_143_28279)">
<path d="M13.0014 7.67578C11.1379 7.67578 9.625 9.18794 9.625 11.0511C9.625 12.9192 11.1382 14.4269 13.0014 14.4269C14.8674 14.4269 16.3772 12.9192 16.3772 11.0511C16.3772 9.18794 14.8674 7.67578 13.0014 7.67578Z" fill="#E07425"/>
<path d="M13 0C5.82036 0 0 5.82036 0 13C0 20.1796 5.82036 26 13 26C20.1796 26 26 20.1796 26 13C26 5.82036 20.1796 0 13 0ZM17.2887 14.3481C13.0003 20.3554 13.0003 20.3554 13.0003 20.3554C13.0003 20.3554 13.0003 20.3554 8.71208 14.3489C8.04518 13.4124 7.59174 12.298 7.59174 11.0516C7.59174 8.06806 10.0149 5.64486 13.0003 5.64486C15.9884 5.64486 18.408 8.06806 18.408 11.0516C18.408 12.2946 17.9553 13.4121 17.2887 14.3481Z" fill="#E07425"/>
</g>
<defs>
<clipPath id="clip0_143_28279">
<rect width="26" height="26" fill="white"/>
</clipPath>
</defs>
</svg>
