<svg width="31" height="31" viewBox="0 0 31 31" fill="none" xmlns="http://www.w3.org/2000/svg">
<path d="M30.0234 15.5C30.0234 7.48108 23.5228 0.980469 15.5039 0.980469C7.48499 0.980469 0.984375 7.48108 0.984375 15.5C0.984375 23.5189 7.48499 30.0195 15.5039 30.0195C23.5228 30.0195 30.0234 23.5189 30.0234 15.5Z" fill="#E07425"/>
<path d="M22.0402 9.65527H8.97949C8.75725 9.65537 8.53838 9.70964 8.34184 9.81339C8.1453 9.91714 7.97702 10.0672 7.85156 10.2507L14.3813 14.8807C14.7112 15.1138 15.1052 15.239 15.5092 15.239C15.9132 15.239 16.3072 15.1138 16.6371 14.8807L23.1661 10.2507C23.0409 10.0675 22.8729 9.9176 22.6767 9.81387C22.4806 9.71013 22.2621 9.6557 22.0402 9.65527Z" fill="white"/>
<path d="M17.1995 15.6763C16.7045 16.0267 16.113 16.2149 15.5066 16.2149C14.9001 16.2149 14.3086 16.0267 13.8137 15.6763L7.60938 11.2773V19.9768C7.60938 20.3394 7.75342 20.6871 8.00981 20.9435C8.26621 21.1999 8.61396 21.3439 8.97656 21.3439H22.0373C22.3999 21.3439 22.7477 21.1999 23.0041 20.9435C23.2605 20.6871 23.4045 20.3394 23.4045 19.9768V11.2773L17.1995 15.6763Z" fill="white"/>
</svg>
