<svg width="26" height="26" viewBox="0 0 26 26" fill="none" xmlns="http://www.w3.org/2000/svg">
<path d="M12.9974 0.166748C10.4592 0.166748 7.97801 0.91941 5.86758 2.32955C3.75715 3.7397 2.11227 5.74399 1.14095 8.08898C0.169623 10.434 -0.0845198 13.0143 0.410657 15.5037C0.905834 17.9932 2.12809 20.2798 3.92286 22.0746C5.71764 23.8694 8.00432 25.0917 10.4937 25.5868C12.9832 26.082 15.5635 25.8279 17.9085 24.8565C20.2535 23.8852 22.2578 22.2403 23.6679 20.1299C25.0781 18.0195 25.8307 15.5383 25.8307 13.0001C25.8267 9.5977 24.4734 6.33583 22.0675 3.92998C19.6617 1.52413 16.3998 0.170762 12.9974 0.166748ZM17.3222 17.3249C17.1035 17.5436 16.8068 17.6665 16.4974 17.6665C16.188 17.6665 15.8913 17.5436 15.6726 17.3249L12.1726 13.8249C11.9538 13.6062 11.8308 13.3095 11.8307 13.0001V6.00008C11.8307 5.69066 11.9537 5.39392 12.1724 5.17512C12.3912 4.95633 12.688 4.83342 12.9974 4.83342C13.3068 4.83342 13.6036 4.95633 13.8224 5.17512C14.0412 5.39392 14.1641 5.69066 14.1641 6.00008V12.5171L17.3222 15.6752C17.541 15.894 17.6638 16.1907 17.6638 16.5001C17.6638 16.8094 17.541 17.1061 17.3222 17.3249Z" fill="#E07425"/>
</svg>
