<svg width="27" height="27" viewBox="0 0 27 27" fill="none" xmlns="http://www.w3.org/2000/svg">
<g clip-path="url(#clip0_143_28283)">
<path fill-rule="evenodd" clip-rule="evenodd" d="M13.5 0C20.9558 0 27 6.04415 27 13.5C27 20.9558 20.9558 27 13.5 27C6.04415 27 0 20.9558 0 13.5C0 6.04415 6.04415 0 13.5 0ZM21.426 19.7456C21.6189 19.5518 21.7272 19.2894 21.7272 19.0159C21.7272 18.7423 21.6189 18.48 21.426 18.2861L18.7834 15.6441C18.5894 15.4511 18.3269 15.3427 18.0533 15.3427C17.7797 15.3427 17.5172 15.4511 17.3232 15.6441L16.6051 16.3625C16.3667 16.6029 16.0569 16.76 15.722 16.8101C15.3871 16.8603 15.0449 16.8009 14.7465 16.6409C12.8778 15.6511 11.3494 14.1229 10.3594 12.2543C10.1993 11.9558 10.1398 11.6135 10.1899 11.2785C10.24 10.9435 10.3969 10.6336 10.6373 10.395L11.3567 9.67676C11.5496 9.48278 11.6579 9.22034 11.6579 8.94678C11.6579 8.67322 11.5496 8.41078 11.3567 8.21681L8.71414 5.57508C8.52017 5.38206 8.25766 5.2737 7.98401 5.2737C7.71036 5.2737 7.44785 5.38206 7.25388 5.57508C7.14466 5.68397 7.0065 5.81555 6.85874 5.95477C6.48923 6.30403 6.02822 6.73872 5.84186 7.01198C4.86032 8.44842 5.33102 10.3702 5.89649 11.7295C6.64348 13.5213 8.02016 15.4737 9.77437 17.2267C11.527 18.9795 13.4787 20.3563 15.2715 21.1033C16.6306 21.6696 18.5516 22.1391 19.988 21.1578C20.2611 20.9712 20.6964 20.5114 21.045 20.1414C21.1848 19.9939 21.3164 19.8545 21.426 19.7456Z" fill="#E07425"/>
</g>
<defs>
<clipPath id="clip0_143_28283">
<rect width="27" height="27" fill="white"/>
</clipPath>
</defs>
</svg>
