<svg width="179" height="41" viewBox="0 0 179 41" fill="none" xmlns="http://www.w3.org/2000/svg">
<path d="M38.3909 10.0788C38.6572 10.0384 38.993 10.0172 39.3375 10.0172C39.6183 10.0172 39.8715 10.0364 40.1116 10.066C36.6363 4.04768 30.2497 0 22.9526 0C15.6556 0 9.26767 4.04768 5.79297 10.066C6.0312 10.0364 6.28757 10.0172 6.56707 10.0172C6.9166 10.0172 7.24363 10.0384 7.5125 10.0788C7.54314 10.0846 7.57127 10.0929 7.60004 10.1C10.8915 4.98068 16.5422 1.59199 22.9526 1.59199C29.363 1.59199 35.0137 4.98004 38.3039 10.0993C38.3346 10.0929 38.3615 10.0846 38.3909 10.0788Z" fill="white"/>
<path d="M39.5833 30.9032C39.2 30.9032 38.7942 30.8653 38.3827 30.7896C38.3608 30.7851 38.344 30.7774 38.3252 30.7729C35.0375 35.9198 29.3737 39.3303 22.942 39.3303C16.5097 39.3303 10.8446 35.9198 7.55877 30.7729C7.53938 30.7774 7.52063 30.7851 7.50124 30.7896C7.0873 30.8653 6.68275 30.9032 6.29945 30.9032C6.12499 30.9032 5.95742 30.8949 5.79297 30.8769C9.27142 36.8843 15.6531 40.9217 22.9414 40.9217C30.229 40.9217 36.6094 36.8843 40.0866 30.8769C39.9278 30.8949 39.759 30.9032 39.5833 30.9032Z" fill="white"/>
<path d="M2.5399 18.4611C2.53802 18.2211 2.32293 18.1774 2.32293 18.1774L1.15427 18.0055C1.15427 18.0055 0.824123 17.9503 0.662175 18.0125C0.541495 18.0587 0.432696 18.1505 0.384549 18.2724C0.130684 18.9012 0 19.5968 0 20.3091C0 21.0951 0.162574 21.8523 0.465211 22.5344C0.537744 22.6974 0.624033 22.8296 0.780354 22.9072C0.917291 22.974 1.30872 22.9162 1.30872 22.9162L2.34356 22.7622C2.34356 22.7622 2.57429 22.7288 2.55241 22.4548C2.49238 21.7092 2.46862 21.0027 2.46862 20.3091C2.46862 19.6873 2.5449 19.0662 2.5399 18.4611Z" fill="white"/>
<path d="M7.10644 22.5292V22.5202C7.07205 21.7893 7.05892 21.0642 7.05892 20.3083C7.05892 19.5537 7.07205 18.8293 7.10644 18.0977V18.0881V18.0175C7.20648 15.4605 7.53788 13.0792 7.88429 11.0791C7.90993 10.9322 7.90993 10.7249 7.51788 10.6652C7.28715 10.6331 6.98513 10.6113 6.65498 10.6113C4.47712 10.6113 3.76993 11.6284 3.56233 12.4818C3.56233 12.4895 3.56233 12.4966 3.55358 12.5139C3.55358 12.521 3.55358 12.537 3.54483 12.5453C3.36787 13.5239 3.22656 14.582 3.11963 15.6883L3.11088 15.728C3.07899 16.0861 3.06398 16.4506 3.03397 16.8105C3.00958 17.1994 2.97144 17.5883 2.94768 17.9867C2.91642 18.751 2.89453 19.5306 2.89453 20.3096C2.89453 21.8791 2.97144 23.4294 3.11088 24.9162C3.22656 26.0879 3.39163 27.241 3.60048 28.3607L3.60673 28.3697V28.3864C3.98753 29.9771 5.33564 30.3114 6.39737 30.3114C6.81693 30.3114 7.20586 30.2594 7.49537 30.2061C7.76799 30.1542 7.99622 30.0323 7.92869 29.7159C7.48161 27.6613 7.19961 25.1902 7.10644 22.5292Z" fill="white"/>
<path d="M13.9444 31.8673C13.7974 31.4059 13.6567 30.9035 13.5248 30.3626C12.8745 27.6265 12.525 24.0786 12.525 20.3627C12.525 16.6481 12.8745 13.0983 13.5248 10.3609C13.6567 9.81999 13.7974 9.31949 13.9444 8.85748C14.0219 8.60402 14.1326 8.15485 13.4823 8.07464C13.3041 8.05346 13.129 8.04127 12.9608 8.03036L12.8188 8.01432C12.3317 7.97518 11.9591 7.9585 11.6321 7.9585C10.2164 7.9585 9.48045 8.34671 9.08465 9.3105V9.33681C9.08465 9.34323 9.0759 9.34323 9.0759 9.35157V9.35799C9.06089 9.39007 9.04526 9.4305 9.03775 9.46194C9.02775 9.48504 9.02087 9.51841 9.01212 9.54151C9.00461 9.58129 8.99023 9.61209 8.98273 9.6615C8.96772 9.70898 8.96022 9.75647 8.94271 9.80524C8.92708 9.85272 8.91145 9.9079 8.89644 9.95539L8.8039 10.3295V10.3442C8.15423 13.0829 7.78906 16.6391 7.78906 20.3621C7.78906 22.2236 7.8816 24.0459 8.05418 25.7399C8.22363 27.4423 8.47938 29.0189 8.8039 30.3857C8.85892 30.6327 8.92708 30.8554 8.98335 31.0613V31.069V31.078C9.00524 31.1653 9.02837 31.2609 9.06902 31.3809C9.44856 32.4307 10.4628 32.9639 12.091 32.9639C12.2942 32.9639 12.5093 32.9569 12.7288 32.9389C13.0539 32.9068 13.3403 32.8593 13.5892 32.8195H13.6042C13.6892 32.8029 13.7674 32.7881 13.8387 32.7727C14.04 32.7297 14.1507 32.4416 14.0356 32.14C14.0006 32.0482 13.9731 31.9558 13.9444 31.8673Z" fill="white"/>
<path d="M15.7441 18.5502C15.5752 18.8608 15.3789 19.5288 15.3789 20.5215C15.3789 21.4801 15.5646 22.1487 15.7284 22.4779C15.7653 22.5543 15.8923 22.6756 16.1011 22.6756C16.9621 22.6756 19.9647 22.673 22.8986 22.6711C25.8318 22.673 28.8337 22.6756 29.6954 22.6756C29.9049 22.6756 30.0293 22.5549 30.0674 22.4779C30.2313 22.1487 30.4188 21.4801 30.4188 20.5215C30.4188 19.5288 30.2188 18.8608 30.0518 18.5502C30.0199 18.4912 29.9211 18.3513 29.6766 18.3513L22.8986 18.3539L16.1205 18.3513C15.8735 18.3513 15.776 18.4912 15.7441 18.5502Z" fill="white"/>
<path d="M16.3076 23.3858H15.8587C15.8224 23.3858 15.7855 23.3838 15.7492 23.3761C15.1158 23.2722 14.7138 22.0029 14.7138 20.5194C14.7138 19.032 15.1165 17.7846 15.7492 17.6838C15.7855 17.6761 15.8224 17.6736 15.8587 17.6736C15.8587 17.6736 16.237 17.6749 16.382 17.6736C16.5252 17.6723 16.6415 17.5985 16.6321 17.3136C16.629 17.2148 16.6159 17.1269 16.6121 17.0216C16.3839 12.537 15.7242 9.44409 14.9914 9.44409C14.7675 9.44409 14.5506 9.72065 14.3324 10.2879C14.1792 10.7095 14.0303 11.2895 13.8828 12.0615C13.5026 14.161 13.2812 17.2154 13.2812 20.4552C13.2812 23.6604 13.5026 26.7071 13.8753 28.8246C14.0235 29.5972 14.1717 30.1856 14.3267 30.6059C14.5356 31.1795 14.7669 31.4728 14.9908 31.4728C15.7224 31.4728 16.3176 28.19 16.619 23.7842C16.6234 23.7258 16.629 23.6861 16.6321 23.645C16.6465 23.423 16.4339 23.3858 16.3076 23.3858Z" fill="white"/>
<path d="M45.4162 18.272C45.3687 18.1501 45.2561 18.059 45.1379 18.0122C44.9766 17.9499 44.6446 18.0064 44.6446 18.0064L43.4772 18.1771C43.4772 18.1771 43.2608 18.2213 43.2608 18.4613C43.2558 19.0671 43.3303 19.6876 43.3303 20.31C43.3303 21.0043 43.3077 21.7095 43.2477 22.4551C43.2246 22.7297 43.4566 22.7625 43.4566 22.7625L44.4889 22.9171C44.4889 22.9171 44.8828 22.9749 45.0204 22.9068C45.1748 22.8305 45.2605 22.697 45.333 22.5347C45.6369 21.8532 45.8007 21.0948 45.8007 20.31C45.8007 19.5964 45.6694 18.9009 45.4162 18.272Z" fill="white"/>
<path d="M42.7597 16.8099C42.7278 16.4512 42.7122 16.0855 42.6815 15.7274L42.674 15.6876C42.5652 14.5814 42.4258 13.5232 42.2469 12.5447C42.2388 12.5364 42.2388 12.5203 42.2388 12.5133C42.2326 12.4966 42.2326 12.4889 42.2326 12.4818C42.0225 11.6297 41.3159 10.6113 39.138 10.6113C38.8079 10.6113 38.5053 10.6338 38.2758 10.6652C37.8812 10.7249 37.8812 10.9328 37.9081 11.0798C38.2545 13.0792 38.5847 15.4611 38.6878 18.0175V18.0881V18.0977C38.7197 18.8293 38.7347 19.5537 38.7347 20.309C38.7347 21.0642 38.7197 21.7893 38.6878 22.5202V22.5292C38.5934 25.1902 38.3102 27.6625 37.8643 29.7146C37.7937 30.031 38.0269 30.1535 38.2952 30.2055C38.5884 30.2581 38.9755 30.3107 39.3925 30.3107C40.4555 30.3107 41.8049 29.9758 42.185 28.3857V28.369L42.1932 28.36C42.4014 27.2397 42.5652 26.0866 42.6809 24.9149C42.8203 23.4288 42.8985 21.8785 42.8985 20.3096C42.8985 19.5293 42.8754 18.7497 42.8447 17.9861C42.8203 17.5883 42.7841 17.1994 42.7597 16.8099Z" fill="white"/>
<path d="M37.036 10.3449V10.3301L36.9434 9.95539C36.9278 9.9079 36.9115 9.85272 36.8972 9.80524C36.8815 9.75647 36.8715 9.70963 36.8559 9.66214C36.849 9.61209 36.8353 9.58193 36.8278 9.54151C36.8184 9.51777 36.8096 9.48568 36.8034 9.46194C36.7959 9.4305 36.779 9.39071 36.7665 9.35799V9.35093C36.7665 9.34387 36.7558 9.34387 36.7558 9.33617V9.3105C36.3619 8.34671 35.6253 7.9585 34.2053 7.9585C33.8802 7.9585 33.5081 7.97454 33.021 8.01368L32.8791 8.02972C32.7096 8.04063 32.5364 8.05218 32.3582 8.07464C31.7092 8.15421 31.8186 8.60338 31.8955 8.85684C32.0418 9.31949 32.1813 9.81999 32.312 10.3609C32.9648 13.0983 33.3143 16.6474 33.3143 20.3621C33.3143 24.078 32.9648 27.6258 32.312 30.3626C32.1813 30.9029 32.0418 31.4059 31.8955 31.8673C31.8674 31.9558 31.8392 32.0482 31.8048 32.1413C31.6885 32.4416 31.8005 32.731 32.0031 32.7733C32.0731 32.7894 32.1513 32.8041 32.2363 32.8208H32.25C32.4977 32.86 32.7853 32.9081 33.1117 32.9402C33.3287 32.9569 33.545 32.9646 33.7464 32.9646C35.3752 32.9646 36.3913 32.432 36.7702 31.3822C36.8084 31.2622 36.834 31.1666 36.8546 31.0793V31.0697V31.0626C36.9109 30.8567 36.9803 30.634 37.0353 30.387C37.3605 29.0195 37.6156 27.4436 37.7876 25.7406C37.9576 24.0472 38.0514 22.2248 38.0514 20.3627C38.0521 16.6397 37.6856 13.0829 37.036 10.3449Z" fill="white"/>
<path d="M32.5136 20.4552C32.5136 17.2148 32.2897 14.1617 31.9108 12.0615C31.7632 11.2895 31.6144 10.7095 31.4593 10.2873C31.2424 9.72065 31.0248 9.44409 30.8028 9.44409C30.07 9.44409 29.4122 12.537 29.1827 17.0216C29.1764 17.1269 29.1633 17.2141 29.1608 17.3142C29.152 17.5985 29.2683 17.6723 29.4122 17.6729C29.556 17.6742 29.9361 17.6729 29.9361 17.6729C29.973 17.6729 30.0093 17.6761 30.0431 17.6832C30.6765 17.7852 31.0779 19.0326 31.0779 20.5194C31.0779 22.0036 30.6759 23.2722 30.0431 23.3768C30.0093 23.3845 29.973 23.3864 29.9361 23.3864H29.4872C29.3596 23.3864 29.147 23.423 29.1608 23.6456C29.1633 23.6861 29.1702 23.7258 29.1739 23.7849C29.4734 28.1913 30.0712 31.4741 30.8022 31.4741C31.0235 31.4741 31.258 31.1802 31.4662 30.6072C31.6219 30.1862 31.7701 29.5978 31.9183 28.8252C32.2891 26.7077 32.5136 23.661 32.5136 20.4552Z" fill="white"/>
<path d="M58.0348 11.5967V32.9619H54.8672V11.5967H51.832V8.65137H61.0693V11.5967H58.0348Z" fill="white"/>
<path d="M62.918 8.65137H69.1208C71.54 8.65137 72.7499 10.0393 72.7499 12.8158V18.8084C72.7499 20.9305 72.1234 22.2735 70.8691 22.8375L73.0801 32.9612H70.0775L67.999 23.1423H66.085V32.9612H62.918V8.65137ZM66.085 20.3671H68.1635C69.1089 20.3671 69.5822 19.7799 69.5822 18.6063V13.3581C69.5822 12.1844 69.1089 11.5973 68.1635 11.5973H66.085V20.3671Z" fill="white"/>
<path d="M75.4023 32.9625V8.65137H83.2553V11.5967H78.5707V18.9778H82.7275V21.9238H78.5707V30.0159H83.2553V32.9619H75.4023V32.9625Z" fill="white"/>
<path d="M92.0583 20.4004V8.65137H95.2254V32.9618H92.0583V28.1204L88.6599 17.0483V32.9618H85.4922V8.65137H88.6599L92.0583 20.4004Z" fill="white"/>
<path d="M101.241 32.9619H98.0742V12.8158C98.0742 10.0393 99.3385 8.65137 101.868 8.65137H104.244C106.773 8.65137 108.038 10.0393 108.038 12.8158V32.9619H104.871V24.0567H101.241V32.9619ZM104.871 21.1108V13.0186C104.871 12.0702 104.41 11.5967 103.485 11.5967H102.628C101.703 11.5967 101.241 12.0709 101.241 13.0186V21.1108H104.871Z" fill="white"/>
<path d="M113.322 30.0193H118.667V32.9652H109.892L109.66 31.8141L114.642 11.6341H110.189V8.65412H117.348L118.008 10.0421L113.322 30.0193ZM114.609 4.99786L115.995 3.03369H118.436L115.598 6.82599H113.619L110.781 3.03369H113.223L114.609 4.99786Z" fill="white"/>
<path d="M120.445 32.9625V8.65137H123.613V32.9619H120.445V32.9625Z" fill="white"/>
<path d="M126.637 32.9625V8.65137H134.49V11.5967H129.805V18.9778H133.962V21.9238H129.805V30.0159H134.49V32.9619H126.637V32.9625Z" fill="white"/>
<path d="M136.723 8.65137H142.926C145.345 8.65137 146.555 10.0393 146.555 12.8158V18.8084C146.555 20.9305 145.929 22.2735 144.674 22.8375L146.885 32.9612H143.883L141.804 23.1423H139.89V32.9612H136.723V8.65137ZM139.89 20.3671H141.969C142.914 20.3671 143.388 19.7799 143.388 18.6063V13.3581C143.388 12.1844 142.914 11.5973 141.969 11.5973H139.89V20.3671Z" fill="white"/>
<path d="M149.207 32.9625V8.65137H152.375V32.9619H149.207V32.9625Z" fill="white"/>
<path d="M158.264 28.8315V32.9626H154.898V28.8315H158.264Z" fill="white"/>
<path d="M168.218 32.9625H160.695V8.65137H163.863V30.0159H168.218V32.9625Z" fill="white"/>
<path d="M178.998 8.65137L175.171 32.9618H171.409L167.582 8.65137H170.717L173.29 27.206L175.864 8.65137H178.998Z" fill="white"/>
</svg>
