<svg width="49" height="21" viewBox="0 0 49 21" fill="none" xmlns="http://www.w3.org/2000/svg">
<path d="M22.8691 10.2377V15.906H21.0703V1.90869H25.8391C27.0477 1.90869 28.0783 2.3116 28.9215 3.11733C29.7835 3.92305 30.2145 4.90678 30.2145 6.06852C30.2145 7.2584 29.7835 8.24213 28.9215 9.03848C28.0876 9.83482 27.0571 10.2284 25.8391 10.2284H22.8691V10.2377ZM22.8691 3.63259V8.51383H25.8766C26.5886 8.51383 27.1883 8.27027 27.6567 7.79242C28.1345 7.31458 28.3781 6.73376 28.3781 6.0779C28.3781 5.43143 28.1345 4.85989 27.6567 4.38214C27.1882 3.88554 26.598 3.64197 25.8766 3.64197H22.8691V3.63259Z" fill="white"/>
<path d="M34.913 6.01221C36.2433 6.01221 37.2927 6.36822 38.0609 7.08025C38.8292 7.79229 39.2133 8.76664 39.2133 10.0034V15.9059H37.4988V14.5755H37.4238C36.6837 15.6717 35.6906 16.2151 34.4539 16.2151C33.3952 16.2151 32.5145 15.9059 31.8024 15.2782C31.0904 14.6505 30.7344 13.8728 30.7344 12.9359C30.7344 11.9428 31.1091 11.1559 31.8587 10.5749C32.6082 9.98475 33.6107 9.69429 34.8568 9.69429C35.9248 9.69429 36.8056 9.89105 37.4895 10.2845V9.8723C37.4895 9.24458 37.2459 8.71994 36.7493 8.27961C36.2527 7.83928 35.6719 7.62375 35.0067 7.62375C34.0042 7.62375 33.2078 8.04532 32.6269 8.89794L31.0435 7.90483C31.9149 6.63992 33.2078 6.01221 34.913 6.01221ZM32.5895 12.964C32.5895 13.4325 32.7862 13.826 33.1891 14.1351C33.5826 14.4443 34.0511 14.6036 34.5851 14.6036C35.344 14.6036 36.0185 14.3225 36.6088 13.7603C37.1991 13.1982 37.4989 12.5423 37.4989 11.7835C36.9367 11.3432 36.1591 11.1183 35.1566 11.1183C34.4258 11.1183 33.8169 11.2963 33.3297 11.6429C32.833 12.0083 32.5895 12.4487 32.5895 12.964Z" fill="white"/>
<path d="M48.9971 6.32129L43.0009 20.1125H41.1458L43.3756 15.2874L39.4219 6.32129H41.38L44.2282 13.1981H44.2657L47.0389 6.32129H48.9971Z" fill="white"/>
<path d="M15.5636 7.40723H8.02344V10.499L12.366 10.5C12.1899 11.5287 11.623 12.4056 10.7545 12.9903V12.9908C10.7548 12.9906 10.7552 12.9905 10.7555 12.9903L10.6773 14.8382L13.3404 14.9952C13.34 14.9955 13.3397 14.9959 13.3394 14.9962C14.8487 13.5993 15.7136 11.5343 15.7136 9.09466C15.7135 8.5081 15.661 7.9469 15.5636 7.40723Z" fill="white"/>
<path d="M10.7542 12.99C10.7539 12.9902 10.7535 12.9904 10.7532 12.9906C10.0338 13.4755 9.10749 13.7592 8.02403 13.7592C5.93005 13.7592 4.1537 12.3483 3.51756 10.4464H3.51728C3.51737 10.4466 3.51747 10.447 3.51756 10.4473L1.29429 10.0952L0.851562 12.5156C2.17274 15.1368 4.88765 16.9353 8.02413 16.9353C10.1915 16.9353 12.0125 16.2227 13.3381 14.9959C13.3385 14.9956 13.3389 14.9953 13.3392 14.9949L10.7542 12.99Z" fill="white"/>
<path d="M3.26884 8.91189C3.26884 8.37787 3.35784 7.86165 3.51996 7.37634L2.82573 5.30762H0.853481C0.307303 6.39165 0 7.61521 0 8.91189C0 10.2086 0.30826 11.4321 0.853481 12.5162L0.853863 12.5159L3.51996 10.4475C3.51987 10.4472 3.51977 10.4469 3.51967 10.4465C3.35774 9.96156 3.26884 9.44563 3.26884 8.91189Z" fill="white"/>
<path d="M8.02451 0.887207C4.8887 0.887207 2.17265 2.68604 0.851562 5.30754L3.51795 7.37626C4.15409 5.47435 5.93043 4.0634 8.02442 4.0634C9.20769 4.0634 10.2674 4.471 11.104 5.26735L13.3948 2.97851C12.0036 1.6826 10.1897 0.887207 8.02451 0.887207Z" fill="white"/>
</svg>
