<svg width="39" height="23" viewBox="0 0 39 23" fill="none" xmlns="http://www.w3.org/2000/svg">
<path d="M11.425 22.5155C13.775 22.5155 15.9781 21.7811 17.7406 20.4959C18.2914 20.1287 18.3649 19.3576 17.9242 18.8803C16.1617 16.9342 15.0969 14.3272 15.0969 11.4998C15.0969 8.67249 16.1617 6.06546 17.9242 4.11937C18.3649 3.64202 18.2914 2.87093 17.7406 2.50374C15.7946 1.10843 13.3711 0.374055 10.7641 0.52093C5.25627 0.851399 0.776585 5.29437 0.409397 10.8022C0.0422096 17.1912 5.1094 22.5155 11.425 22.5155Z" fill="white"/>
<path d="M38.5667 10.802C38.2362 5.29417 33.7198 0.851196 28.212 0.520728C25.605 0.373853 23.1815 1.14495 21.2354 2.50354C20.6847 2.87073 20.6112 3.64182 21.0518 4.11917C22.8511 6.06526 23.9159 8.67229 23.9159 11.4996C23.9159 14.327 22.8511 16.934 21.0886 18.8801C20.6479 19.3574 20.7214 20.1285 21.2722 20.4957C23.0347 21.7809 25.2378 22.5153 27.5878 22.5153C33.9034 22.5153 38.9706 17.191 38.5667 10.802Z" fill="white"/>
</svg>
