<svg width="52" height="18" viewBox="0 0 52 18" fill="none" xmlns="http://www.w3.org/2000/svg">
<path d="M19.7441 0.897883L12.9372 17.1404H8.49448L5.14719 4.17927C4.94112 3.37997 4.76501 3.08909 4.1471 2.74967C3.13493 2.20245 1.47002 1.68916 0 1.36944L0.102883 0.897984H7.25075C8.16237 0.897984 8.98199 1.50604 9.18806 2.55427L10.958 11.9551L15.3296 0.897984L19.7441 0.897883ZM37.1464 11.8349C37.1661 7.55043 31.2179 7.31724 31.2606 5.40045C31.2722 4.81535 31.8267 4.19623 33.0412 4.03992C33.6443 3.95969 35.3039 3.90088 37.185 4.76447L37.9222 1.3217C36.9101 0.954351 35.6092 0.602539 33.9924 0.602539C29.8396 0.602539 26.9161 2.81142 26.8914 5.97194C26.8642 8.3091 28.9772 9.61337 30.571 10.3917C32.2076 11.1882 32.7548 11.6967 32.749 12.411C32.7384 13.5012 31.4432 13.9776 30.2353 13.999C28.1222 14.0319 26.8967 13.4281 25.9179 12.9722L25.1572 16.5333C26.1376 16.9835 27.9527 17.3743 29.8312 17.3973C34.245 17.3971 37.1325 15.2118 37.1464 11.8349ZM48.113 17.1405H52L48.6083 0.897984H45.02C44.2137 0.897984 43.534 1.36822 43.2311 2.0886L36.93 17.1405H41.3403L42.2158 14.7147H47.6069L48.113 17.1405ZM43.4245 11.3856L45.6371 5.2868L46.91 11.3856H43.4245ZM25.7486 0.897883L22.2721 17.1404H18.0696L21.5469 0.897883H25.7486Z" fill="white"/>
</svg>
