<svg width="48" height="22" viewBox="0 0 48 22" fill="none" xmlns="http://www.w3.org/2000/svg">
<path d="M9.0706 3.44509C9.63573 2.73821 10.0192 1.78918 9.9181 0.819336C9.09085 0.860492 8.08135 1.36515 7.49692 2.07249C6.9721 2.6783 6.50767 3.66708 6.62879 4.59624C7.55729 4.67677 8.48514 4.13209 9.0706 3.44509Z" fill="white"/>
<path d="M9.90876 4.77784C8.56016 4.6975 7.41351 5.54322 6.76944 5.54322C6.1251 5.54322 5.13885 4.81834 4.07216 4.83784C2.68382 4.85828 1.3956 5.64325 0.691068 6.89172C-0.758026 9.38931 0.308662 13.0941 1.71782 15.1282C2.4021 16.1345 3.22691 17.2427 4.31357 17.2028C5.34032 17.1625 5.74279 16.5379 6.99079 16.5379C8.23794 16.5379 8.60047 17.2028 9.68732 17.1827C10.8145 17.1625 11.5191 16.1758 12.2034 15.1684C12.9884 14.0212 13.3098 12.9136 13.33 12.8527C13.3097 12.8326 11.1566 12.0065 11.1366 9.52975C11.1163 7.45591 12.8271 6.46937 12.9076 6.40825C11.9416 4.9795 10.4321 4.81834 9.90876 4.77784Z" fill="white"/>
<path d="M21.648 1.97119C24.5792 1.97119 26.6202 3.99169 26.6202 6.93338C26.6202 9.88557 24.5371 11.9166 21.5745 11.9166H18.3292V17.0776H15.9844V1.97119H21.648ZM18.3291 9.94838H21.0195C23.061 9.94838 24.2228 8.84925 24.2228 6.94388C24.2228 5.03869 23.061 3.94988 21.03 3.94988H18.3291V9.94838Z" fill="white"/>
<path d="M27.2344 13.9476C27.2344 12.0213 28.7105 10.8383 31.3279 10.6918L34.3427 10.5138V9.66597C34.3427 8.44113 33.5156 7.70828 32.134 7.70828C30.8251 7.70828 30.0085 8.33632 29.8099 9.3205H27.6743C27.7999 7.33132 29.4956 5.86572 32.2177 5.86572C34.8871 5.86572 36.5934 7.279 36.5934 9.48785V17.0777H34.4263V15.2666H34.3742C33.7357 16.4915 32.3432 17.2661 30.8986 17.2661C28.742 17.2661 27.2344 15.926 27.2344 13.9476ZM34.3426 12.9531V12.0843L31.6312 12.2517C30.2807 12.346 29.5165 12.9427 29.5165 13.8849C29.5165 14.8479 30.3121 15.4761 31.5265 15.4761C33.1073 15.4759 34.3426 14.3872 34.3426 12.9531Z" fill="white"/>
<path d="M38.6357 21.129V19.297C38.8029 19.3388 39.1797 19.3388 39.3682 19.3388C40.4151 19.3388 40.9805 18.8992 41.3257 17.7686C41.3257 17.7476 41.5249 17.0985 41.5249 17.088L37.5469 6.06445H39.9963L42.7813 15.0257H42.8229L45.608 6.06445H47.9946L43.8696 17.6533C42.9277 20.323 41.8389 21.1814 39.5568 21.1814C39.3682 21.1814 38.8028 21.1604 38.6357 21.129Z" fill="white"/>
</svg>
